# xmcd
#
# Track frame offsets:
#	150
#	16542
#	33924
#	50802
#	67021
#	83833
#	96769
#	113404
#	129389
#	147324
#	163200
#
# Disc length: 2218 seconds
#
# Revision: 0
# Processed by: cddbd v1.5.2PL0 Copyright (c) Steve Scherf et al.
# Submitted via: EasyCDDAExtractor 2010.4.0.0
#
DISCID=8b08a80b
DTITLE=Various Artist - WNUA 95.5 Smooth Jazz Sampler Vol. 18 Disc 1
DYEAR=2005
DGENRE=General Jazz
TTITLE0=Tisdale, Wayman - Ain't No Stoppin' Us Now
TTITLE1=Soul Ballet - Cream
TTITLE2=Steve Cole -  Thursday
TTITLE3=Nils - Pacific Coast Highway
TTITLE4=Dave Koz - Honey-Dipped
TTITLE5=Joyce Cooling - Camelback
TTITLE6=Brian Culbertson - Hookin' Up
TTITLE7=Euge Groove -  XXL
TTITLE8=Nick Colionne - High Flyin'
TTITLE9=Greg Adams - FireFly
TTITLE10=Various Artist - Bonus Track
EXTD=
EXTT0=
EXTT1=
EXTT2=
EXTT3=
EXTT4=
EXTT5=
EXTT6=
EXTT7=
EXTT8=
EXTT9=
EXTT10=
PLAYORDER=
